<svg width="105" height="23" viewBox="0 0 105 23" fill="none" xmlns="http://www.w3.org/2000/svg">
<path fill-rule="evenodd" clip-rule="evenodd" d="M27.4055 5.37433C28.0433 6.07974 28.1878 7.09235 27.8391 8.41126C27.5943 9.3392 27.1422 10.1359 26.4838 10.8018C25.8248 11.4681 25.0065 11.9454 24.0296 12.2325C24.7959 12.4022 25.232 12.9704 25.3373 13.9372L25.8543 18.2673H22.6673L22.1368 13.6234C22.0912 13.2581 21.9434 13.0033 21.6911 12.8593C21.4392 12.7156 21.0949 12.6437 20.6576 12.6437H18.7069L17.2213 18.2673H14.2468L17.9316 4.31641H24.054C25.6501 4.31641 26.7677 4.66892 27.4055 5.37433ZM24.0352 9.87174C24.5119 9.57782 24.833 9.11747 24.9987 8.49026C25.1644 7.86339 25.086 7.40299 24.7649 7.10878C24.4432 6.81491 23.8509 6.66795 22.9883 6.66795H20.2457L19.2829 10.3129H22.0255C22.8888 10.3129 23.5581 10.1656 24.0352 9.87174Z" fill="#162F56"/>
<path fill-rule="evenodd" clip-rule="evenodd" d="M35.9995 9.74766L36.372 8.33683H39.2496L36.6257 18.271H33.7483L34.1368 16.8016C33.7059 17.3109 33.1824 17.7097 32.5659 17.9967C31.9492 18.2841 31.2992 18.4277 30.6171 18.4277C29.7674 18.4277 29.0724 18.2192 28.5328 17.8009C27.9927 17.3828 27.642 16.7853 27.4801 16.0079C27.3183 15.2308 27.3722 14.3329 27.6413 13.3137C27.9105 12.2949 28.3337 11.3871 28.9112 10.5902C29.4886 9.79359 30.1636 9.17644 30.9357 8.73859C31.7077 8.30101 32.5125 8.08203 33.3494 8.08203C34.0315 8.08203 34.6038 8.23259 35.0656 8.53299C35.5268 8.83338 35.8383 9.23806 35.9995 9.74766ZM33.9196 15.4294C34.4366 14.9332 34.8195 14.2145 35.068 13.2742C35.3166 12.3335 35.3134 11.6119 35.0603 11.1091C34.8072 10.6064 34.3191 10.3545 33.5984 10.3545C32.8772 10.3545 32.2483 10.6161 31.7114 11.1381C31.1738 11.6611 30.7833 12.386 30.5386 13.3133C30.2932 14.2412 30.3022 14.9495 30.5662 15.4392C30.8289 15.9292 31.3273 16.174 32.0621 16.174C32.7827 16.174 33.4019 15.926 33.9196 15.4294Z" fill="#162F56"/>
<path d="M49.5963 8.33203H41.2336L40.6491 10.5463H45.5158L39.0813 16.1891L38.5321 18.2662H47.1652L47.7503 16.0523H42.5362L49.0684 10.3306L49.5963 8.33203Z" fill="#162F56"/>
<path fill-rule="evenodd" clip-rule="evenodd" d="M56.104 8.08203C57.1342 8.08203 57.9801 8.29118 58.6424 8.7089C59.3039 9.12725 59.7406 9.72809 59.9526 10.5117C60.164 11.2956 60.1318 12.2098 59.8556 13.255C59.5794 14.3003 59.1285 15.2142 58.5036 15.9981C57.878 16.782 57.1233 17.3828 56.2415 17.8009C55.3583 18.2192 54.4019 18.4277 53.3717 18.4277C52.3286 18.4277 51.473 18.2192 50.8044 17.8009C50.1351 17.3828 49.6958 16.782 49.4845 15.9981C49.2725 15.2142 49.3046 14.3003 49.5808 13.255C49.857 12.2098 50.3079 11.2956 50.9335 10.5117C51.5584 9.72809 52.3158 9.12725 53.2053 8.7089C54.0949 8.29118 55.0609 8.08203 56.104 8.08203ZM55.8093 15.4505C56.3166 14.9673 56.7001 14.2352 56.959 13.2558C57.2146 12.2891 57.2165 11.5609 56.9661 11.0712C56.7155 10.5812 56.2293 10.3361 55.5087 10.3361C54.7745 10.3361 54.1502 10.5812 53.6345 11.0712C53.1193 11.5609 52.734 12.2891 52.4783 13.2558C51.9644 15.2025 52.4603 16.1751 53.9672 16.1751C54.6878 16.1751 55.3019 15.9337 55.8093 15.4505Z" fill="#162F56"/>
<path fill-rule="evenodd" clip-rule="evenodd" d="M89.6702 9.74766L90.0427 8.33683H92.9202L90.2964 18.271H87.4189L87.8075 16.8016C87.3765 17.3109 86.853 17.7097 86.2364 17.9967C85.6199 18.2841 84.9698 18.4277 84.2877 18.4277C83.438 18.4277 82.743 18.2192 82.2034 17.8009C81.6627 17.3828 81.3126 16.7853 81.1508 16.0079C80.9895 15.2308 81.0429 14.3329 81.312 13.3137C81.5811 12.2949 82.0044 11.3871 82.5818 10.5902C83.1592 9.79359 83.8343 9.17644 84.6063 8.73859C85.3783 8.30101 86.1831 8.08203 87.02 8.08203C87.7022 8.08203 88.2745 8.23259 88.7362 8.53299C89.1974 8.83338 89.5089 9.23806 89.6702 9.74766ZM87.5903 15.4294C88.1074 14.9332 88.4902 14.2145 88.7388 13.2742C88.9873 12.3335 88.9842 11.6119 88.731 11.1091C88.478 10.6064 87.9898 10.3545 87.2691 10.3545C86.5479 10.3545 85.9191 10.6161 85.3821 11.1381C84.8445 11.6611 84.454 12.386 84.2093 13.3133C83.9639 14.2412 83.9729 14.9495 84.2369 15.4392C84.4996 15.9292 84.9987 16.174 85.7322 16.174C86.4528 16.174 87.0733 15.926 87.5903 15.4294Z" fill="#162F56"/>
<path d="M68.9016 10.9977L69.635 8.29376C69.3858 8.1631 69.0557 8.09766 68.644 8.09766C67.9869 8.09766 67.3542 8.26413 66.7447 8.59741C66.2213 8.88335 65.7755 9.28472 65.3991 9.78762L65.7807 8.33148L64.9475 8.33289H62.9041L60.2601 18.267H63.1774L64.5487 13.0749C64.7485 12.3173 65.1069 11.7263 65.6252 11.3017C66.1422 10.8772 66.7877 10.6647 67.5604 10.6647C68.037 10.6647 68.4834 10.7758 68.9016 10.9977Z" fill="#162F56"/>
<path fill-rule="evenodd" clip-rule="evenodd" d="M76.9937 8.08203C77.83 8.08203 78.5192 8.30062 79.0606 8.73819C79.6014 9.17611 79.9508 9.79319 80.1069 10.5899C80.2629 11.3868 80.2071 12.2945 79.938 13.3133C79.6689 14.3325 79.2513 15.2308 78.6855 16.0075C78.1202 16.7849 77.4536 17.3828 76.6866 17.8005C75.9191 18.2189 75.1112 18.4274 74.2614 18.4274C73.5786 18.4274 73.005 18.2837 72.54 17.9963C72.075 17.7093 71.7679 17.3105 71.6202 16.8016L70.1141 22.5031H67.1974L70.1885 11.1776C70.1926 11.1618 70.1964 11.1465 70.2002 11.1313C70.2042 11.1156 70.2081 11.0999 70.2123 11.0836L70.9375 8.33649H73.2211V8.33509H73.7851L73.295 9.91733L73.2857 9.98249C73.6981 9.39441 74.2357 8.93143 74.8991 8.59129C75.5607 8.25176 76.2595 8.08203 76.9937 8.08203ZM75.8812 15.4383C76.3963 14.9486 76.7765 14.2403 77.0219 13.3123C77.2666 12.3854 77.2615 11.6601 77.0071 11.1375C76.7521 10.6152 76.271 10.3536 75.5632 10.3536C74.8419 10.3536 74.2182 10.6054 73.6929 11.1082C73.1674 11.6109 72.7808 12.3326 72.5322 13.2732C72.2837 14.2139 72.2901 14.9323 72.5522 15.4285C72.8136 15.9251 73.3049 16.173 74.0262 16.173C74.7469 16.173 75.3648 15.9283 75.8812 15.4383Z" fill="#162F56"/>
<path d="M104.998 8.33479L105 8.33203H103.233C103.177 8.33203 103.127 8.33366 103.075 8.33479H102.158L101.69 8.99753C101.652 9.04745 101.614 9.09771 101.574 9.15602L101.523 9.23276L97.7966 14.4978L97.024 8.33203H93.9718L95.5175 17.7013L92.104 22.4986H92.2013H93.9441H95.1449L95.9722 21.3097C95.9966 21.2743 96.0175 21.2453 96.0435 21.2079L97.0089 19.8194L97.0365 19.7796L101.356 13.5675L104.995 8.33889L105 8.33479H104.998Z" fill="#162F56"/>
<path d="M6.75106 5.91497L5.87793 9.17487L10.874 5.89664L7.60674 18.2645L10.9246 18.2676L15.7513 0L6.75106 5.91497Z" fill="#3395FF"/>
<path d="M1.37359 13.0695L0 18.2688H6.80096C6.80096 18.2688 9.58272 7.69444 9.5835 7.69141C9.5809 7.69309 1.37359 13.0695 1.37359 13.0695Z" fill="#162F56"/>
</svg>
