<svg width="32" height="33" viewBox="0 0 32 33" fill="none" xmlns="http://www.w3.org/2000/svg">
<path d="M16 32.1336C24.8366 32.1336 32 24.9403 32 16.0668C32 7.19335 24.8366 0 16 0C7.16344 0 0 7.19335 0 16.0668C0 24.9403 7.16344 32.1336 16 32.1336Z" fill="#CD8214" fill-opacity="0.1"/>
<g clip-path="url(#clip0_4521_9044)">
<mask id="mask0_4521_9044" style="mask-type:alpha" maskUnits="userSpaceOnUse" x="6" y="5" width="20" height="21">
<path d="M16.0007 11.5898C16.4609 11.5898 16.834 11.9629 16.834 12.4232V15.7565C16.834 16.2167 16.4609 16.5898 16.0007 16.5898C15.5404 16.5898 15.1673 16.2167 15.1673 15.7565V12.4232C15.1673 11.9629 15.5404 11.5898 16.0007 11.5898Z" fill="white"/>
<path d="M16.0007 19.9232C16.4609 19.9232 16.834 19.5501 16.834 19.0898C16.834 18.6296 16.4609 18.2565 16.0007 18.2565C15.5404 18.2565 15.1673 18.6296 15.1673 19.0898C15.1673 19.5501 15.5404 19.9232 16.0007 19.9232Z" fill="white"/>
<path fill-rule="evenodd" clip-rule="evenodd" d="M6.83398 15.7565C6.83398 10.6939 10.938 6.58984 16.0007 6.58984C21.0633 6.58984 25.1673 10.6939 25.1673 15.7565C25.1673 20.8191 21.0633 24.9232 16.0007 24.9232C10.938 24.9232 6.83398 20.8191 6.83398 15.7565ZM16.0007 8.25651C11.8585 8.25651 8.50065 11.6144 8.50065 15.7565C8.50065 19.8986 11.8585 23.2565 16.0007 23.2565C20.1428 23.2565 23.5006 19.8986 23.5006 15.7565C23.5006 11.6144 20.1428 8.25651 16.0007 8.25651Z" fill="white"/>
</mask>
<g mask="url(#mask0_4521_9044)">
<rect x="6" y="5.75781" width="20" height="20" fill="#CD8214"/>
</g>
</g>
<defs>
<clipPath id="clip0_4521_9044">
<rect width="20" height="20" fill="white" transform="translate(6 5.75781)"/>
</clipPath>
</defs>
</svg>
