<svg width="18" height="11" viewBox="0 0 18 11" fill="none" xmlns="http://www.w3.org/2000/svg">
<path d="M10.8615 1.15625H6.23804V9.64676H10.8615V1.15625Z" fill="#FF5F00"/>
<path d="M6.53079 5.40013C6.52994 4.58231 6.71121 3.77502 7.06086 3.03938C7.41052 2.30375 7.9194 1.65905 8.54898 1.15412C7.76946 0.528124 6.83332 0.138855 5.84754 0.030802C4.86176 -0.0772513 3.86612 0.10027 2.97441 0.543078C2.0827 0.985886 1.33089 1.67611 0.804908 2.53488C0.278929 3.39364 0 4.38629 0 5.39938C0 6.41246 0.278929 7.40511 0.804908 8.26388C1.33089 9.12264 2.0827 9.81287 2.97441 10.2557C3.86612 10.6985 4.86176 10.876 5.84754 10.7679C6.83332 10.6599 7.76946 10.2706 8.54898 9.64463C7.9196 9.13986 7.41083 8.4954 7.06118 7.76004C6.71154 7.02468 6.53016 6.21769 6.53079 5.40013Z" fill="#EB001B"/>
<path d="M17.1 5.40075C17.1 6.41391 16.821 7.40662 16.295 8.26542C15.7689 9.12421 15.017 9.81443 14.1251 10.2572C13.2333 10.6999 12.2376 10.8773 11.2517 10.7691C10.2659 10.6609 9.32975 10.2714 8.55029 9.64526C9.17942 9.14003 9.68804 8.4954 10.0378 7.76C10.3875 7.0246 10.5693 6.21764 10.5693 5.4C10.5693 4.58236 10.3875 3.7754 10.0378 3.04C9.68804 2.3046 9.17942 1.65997 8.55029 1.15474C9.32975 0.528553 10.2659 0.139095 11.2517 0.0308862C12.2376 -0.0773223 13.2333 0.100085 14.1251 0.54283C15.017 0.985575 15.7689 1.67579 16.295 2.53458C16.821 3.39338 17.1 4.38609 17.1 5.39925V5.40075Z" fill="#F79E1B"/>
<path d="M16.5957 8.74513V8.57115H16.6647V8.53516H16.49V8.57115H16.5648V8.74513H16.5957ZM16.9347 8.74513V8.53516H16.8819L16.8202 8.68514L16.7586 8.53516H16.7116V8.74513H16.7498V8.58765L16.807 8.72414H16.8467L16.9039 8.58765V8.74663L16.9347 8.74513Z" fill="#F79E1B"/>
</svg>
