<svg width="47" height="12" viewBox="0 0 47 12" fill="none" xmlns="http://www.w3.org/2000/svg">
<path fill-rule="evenodd" clip-rule="evenodd" d="M33.1791 2.52482H35.7121V6.54926L37.9034 2.52482H40.2281L35.5411 10.661C35.5411 10.661 35.1061 11.3435 34.5664 11.7045C34.1231 12.0013 33.5779 11.9879 33.4113 12C32.4855 11.9919 31.3687 11.9894 31.3687 11.9894L31.9074 10.05L32.7791 10.0484C32.7791 10.0484 33.1781 10.0077 33.3322 9.81103C33.479 9.62353 33.5541 9.43603 33.5541 9.16102C33.5541 8.74878 33.1791 2.52463 33.1791 2.52463V2.52482ZM6.85824 3.32856C6.50569 4.14534 5.41255 4.05246 5.41255 4.05246L4.13978 4.04651L4.6044 2.31679C4.6044 2.31679 5.74303 2.32101 6.3015 2.32101C6.89931 2.32101 7.08604 2.80118 6.85843 3.32836L6.85824 3.32856ZM9.75096 2.14982C9.96763 0.433534 8.45727 0.000191914 6.82427 0.000191914H2.53307L0 9.23222H2.72671L3.57805 6.09768L5.1076 6.11016C5.1076 6.11016 5.73881 6.0735 5.75128 6.66633C5.76452 7.29868 5.28263 8.45976 5.31372 9.23222H8.11489L8.10875 8.98637C8.10875 8.98637 7.87596 8.92458 7.90187 8.59756C7.91262 8.46149 8.06288 8.03083 8.2596 7.4501C8.3782 7.19409 8.55706 6.58668 8.54056 6.09212C8.52002 5.47473 8.13255 5.1882 7.57389 4.98785C9.31532 4.57945 9.75058 2.15001 9.75077 2.15001L9.75096 2.14982ZM10.3697 2.52482H12.8567L11.8325 6.46539C11.8325 6.46539 11.577 7.34417 12.399 7.41191C13.0484 7.46565 13.5317 6.6907 13.69 6.16581C13.898 5.47646 14.7064 2.52463 14.7064 2.52463H17.2686L15.319 9.23202H13.0818L13.3566 8.2738C13.3566 8.2738 12.2153 9.66556 10.5196 9.49859C9.01228 9.35063 8.88236 8.25729 9.14355 6.89336C9.27175 6.22377 10.3697 2.52482 10.3697 2.52482ZM23.1429 3.34967C22.7881 4.33956 21.8103 4.22288 21.8103 4.22288L20.4753 4.22326L21.0023 2.2619C21.0023 2.2619 21.8473 2.26631 22.4054 2.26631C23.0886 2.26631 23.3366 2.80905 23.1429 3.34948V3.34967ZM25.9466 2.43309C26.1634 0.716607 24.8552 0 23.222 0H18.931L16.3981 9.23202H19.1248L19.8915 6.38575L22.064 6.39899C22.064 6.39899 25.4282 6.54139 25.9468 2.43309H25.9466ZM28.239 7.8656C27.8129 7.97364 27.2963 8.03237 27.1938 7.64528C26.9125 6.58457 29.3959 6.27405 29.3959 6.27405C29.4127 7.24053 28.5658 7.78231 28.2388 7.8656H28.239ZM31.9957 5.92419C32.3233 4.80841 32.7375 3.75192 32.4041 3.16639C31.8936 2.27015 30.9709 2.19147 29.621 2.19147C28.1296 2.19147 26.2884 2.47473 25.6883 4.45797H28.1711C28.1711 4.45797 28.3973 3.71104 29.3293 3.75806C30.1541 3.79971 30.109 4.3672 29.805 4.68097C29.2719 5.23081 27.7995 4.92586 26.1688 5.49162C24.7441 5.98599 24.2455 7.85945 24.555 8.60715C24.855 9.3322 25.4136 9.42451 26.1673 9.49859C27.3777 9.61758 28.3058 8.94262 28.7378 8.54651C28.7378 8.98637 28.7493 9.23202 28.7493 9.23202H31.362L31.3557 8.98618C31.3557 8.98618 31.1229 8.92439 31.1488 8.59736C31.1676 8.35786 31.619 7.2056 31.9955 5.92419H31.9957Z" fill="white"/>
<path fill-rule="evenodd" clip-rule="evenodd" d="M43.4773 0.972656L40.5527 11.1711L46.0269 6.07177L43.4773 0.972656Z" fill="#1D8546"/>
<path fill-rule="evenodd" clip-rule="evenodd" d="M41.6023 0.972656L38.6777 11.1711L44.1521 6.07177L41.6023 0.972656Z" fill="#EC6B00"/>
</svg>
